<svg width="40" height="37" viewBox="0 0 40 37" fill="none" xmlns="http://www.w3.org/2000/svg">
    <path d="M5.50015 0.44043C4.43928 0.44043 3.42187 0.861857 2.67172 1.612C1.92158 2.36215 1.50015 3.37956 1.50015 4.44043C1.50015 5.5013 1.92158 6.51871 2.67172 7.26886C3.42187 8.019 4.43928 8.44043 5.50015 8.44043C6.56102 8.44043 7.57843 8.019 8.32858 7.26886C9.07872 6.51871 9.50015 5.5013 9.50015 4.44043C9.50015 3.37956 9.07872 2.36215 8.32858 1.612C7.57843 0.861857 6.56102 0.44043 5.50015 0.44043ZM9.96304 0.44043C9.96704 0.44443 9.9659 0.454008 9.9689 0.458008C10.9169 1.52001 11.5001 2.91343 11.5001 4.44043C11.5001 6.25443 10.6826 7.88435 9.39859 8.98535L13.8107 10.2471L17.6994 8.69043C18.5674 8.34443 19.5201 8.35468 20.3791 8.72168C21.2381 9.08968 21.9012 9.77165 22.2482 10.6396C22.5952 11.5076 22.5849 12.4593 22.2169 13.3193C21.8489 14.1793 21.167 14.8424 20.299 15.1904L15.299 17.1904C14.584 17.4754 13.7881 17.5176 13.0431 17.3076L11.5001 16.8662V16.9404V25.4404H38.0001C38.8281 25.4404 39.5001 24.7694 39.5001 23.9404C39.5001 23.1114 38.8281 22.4404 38.0001 22.4404H37.5001V1.94043C37.5001 1.11143 36.8281 0.44043 36.0001 0.44043H9.96304ZM16.0001 3.44043H19.0002C19.8292 3.44043 20.5002 4.11243 20.5002 4.94043C20.5002 5.76843 19.8292 6.44043 19.0002 6.44043H16.0001C15.1712 6.44043 14.5001 5.76843 14.5001 4.94043C14.5001 4.11243 15.1712 3.44043 16.0001 3.44043ZM24.0002 3.44043H33.0001C33.8291 3.44043 34.5001 4.11243 34.5001 4.94043C34.5001 5.76843 33.8291 6.44043 33.0001 6.44043H24.0002C23.1712 6.44043 22.5002 5.76843 22.5002 4.94043C22.5002 4.11243 23.1712 3.44043 24.0002 3.44043ZM30.0002 8.44043H33.0001C33.8291 8.44043 34.5001 9.11243 34.5001 9.94043C34.5001 10.7684 33.8291 11.4404 33.0001 11.4404H30.0002C29.1712 11.4404 28.5002 10.7684 28.5002 9.94043C28.5002 9.11243 29.1712 8.44043 30.0002 8.44043ZM6.97085 10.4248C6.86327 10.4237 6.75588 10.4342 6.65054 10.4561C6.59971 10.4535 6.55162 10.4404 6.50015 10.4404H3.50015C1.84315 10.4404 0.50015 11.7834 0.50015 13.4404V25.4404V34.9404C0.497339 35.1392 0.534061 35.3365 0.608181 35.521C0.682302 35.7054 0.792343 35.8733 0.93191 36.0149C1.07148 36.1564 1.23779 36.2688 1.42117 36.3456C1.60456 36.4223 1.80136 36.4618 2.00015 36.4618C2.19894 36.4618 2.39574 36.4223 2.57913 36.3456C2.76251 36.2688 2.92882 36.1564 3.06839 36.0149C3.20796 35.8733 3.318 35.7054 3.39212 35.521C3.46624 35.3365 3.50296 35.1392 3.50015 34.9404V25.4404H6.50015V34.9404C6.49734 35.1392 6.53406 35.3365 6.60818 35.521C6.6823 35.7054 6.79234 35.8733 6.93191 36.0149C7.07148 36.1564 7.23779 36.2688 7.42117 36.3456C7.60456 36.4223 7.80136 36.4618 8.00015 36.4618C8.19894 36.4618 8.39574 36.4223 8.57913 36.3456C8.76251 36.2688 8.92882 36.1564 9.06839 36.0149C9.20796 35.8733 9.318 35.7054 9.39212 35.521C9.46624 35.3365 9.50296 35.1392 9.50015 34.9404V21.9404V14.2139L13.588 15.3818C13.9075 15.4733 14.2482 15.4561 14.5568 15.333L19.5568 13.333C19.887 13.2064 20.1619 12.9671 20.3329 12.6576C20.5039 12.348 20.56 11.9879 20.4913 11.641C20.4226 11.294 20.2335 10.9825 19.9575 10.7614C19.6814 10.5403 19.3361 10.4239 18.9826 10.4326C18.7973 10.4374 18.6145 10.4765 18.4435 10.5479L13.9201 12.3564L7.41226 10.499C7.26966 10.4523 7.12087 10.4273 6.97085 10.4248Z"
          fill="white"/>
</svg>
