<svg width="36" height="36" viewBox="0 0 36 36" fill="none" xmlns="http://www.w3.org/2000/svg">
    <path d="M35.5 8.72895V7.27062C35.5 3.78617 32.665 0.951172 29.1806 0.951172H6.81944C3.335 0.951172 0.5 3.78617 0.5 7.27062V8.72895H35.5ZM0.5 11.6456V29.6317C0.5 33.1162 3.335 35.9512 6.81944 35.9512H29.1806C32.665 35.9512 35.5 33.1162 35.5 29.6317V11.6456H0.5ZM9.73611 30.1178C8.39347 30.1178 7.30556 29.0299 7.30556 27.6873C7.30556 26.3446 8.39347 25.2567 9.73611 25.2567C11.0787 25.2567 12.1667 26.3446 12.1667 27.6873C12.1667 29.0299 11.0787 30.1178 9.73611 30.1178ZM9.73611 21.3678C8.39347 21.3678 7.30556 20.2799 7.30556 18.9373C7.30556 17.5946 8.39347 16.5067 9.73611 16.5067C11.0787 16.5067 12.1667 17.5946 12.1667 18.9373C12.1667 20.2799 11.0787 21.3678 9.73611 21.3678ZM18 30.1178C16.6574 30.1178 15.5694 29.0299 15.5694 27.6873C15.5694 26.3446 16.6574 25.2567 18 25.2567C19.3426 25.2567 20.4306 26.3446 20.4306 27.6873C20.4306 29.0299 19.3426 30.1178 18 30.1178ZM18 21.3678C16.6574 21.3678 15.5694 20.2799 15.5694 18.9373C15.5694 17.5946 16.6574 16.5067 18 16.5067C19.3426 16.5067 20.4306 17.5946 20.4306 18.9373C20.4306 20.2799 19.3426 21.3678 18 21.3678ZM26.2639 21.3678C24.9212 21.3678 23.8333 20.2799 23.8333 18.9373C23.8333 17.5946 24.9212 16.5067 26.2639 16.5067C27.6065 16.5067 28.6944 17.5946 28.6944 18.9373C28.6944 20.2799 27.6065 21.3678 26.2639 21.3678Z"
          fill="white"/>
</svg>
