<svg width="36" height="37" viewBox="0 0 36 37" fill="none" xmlns="http://www.w3.org/2000/svg">
    <path d="M4.5 0.451322C2.0325 0.451322 0 2.48382 0 4.95132V31.9513C0 34.4363 2.015 36.4513 4.5 36.4513H31.5C33.985 36.4513 36 34.4363 36 31.9513V10.9513C36 8.46632 33.985 6.45132 31.5 6.45132H4.5C3.672 6.45132 3 5.77932 3 4.95132C3 4.10482 3.6535 3.45132 4.5 3.45132H29.5C29.6988 3.45413 29.8961 3.41741 30.0806 3.34329C30.265 3.26917 30.4329 3.15913 30.5745 3.01956C30.716 2.88 30.8284 2.71369 30.9051 2.5303C30.9819 2.34691 31.0214 2.15011 31.0214 1.95132C31.0214 1.75253 30.9819 1.55573 30.9051 1.37234C30.8284 1.18896 30.716 1.02265 30.5745 0.883082C30.4329 0.743515 30.265 0.633474 30.0806 0.559353C29.8961 0.485233 29.6988 0.448511 29.5 0.451322H4.5ZM27.5 18.4513C28.881 18.4513 30 19.5703 30 20.9513C30 22.3323 28.881 23.4513 27.5 23.4513C26.119 23.4513 25 22.3323 25 20.9513C25 19.5703 26.119 18.4513 27.5 18.4513Z"
          fill="white"/>
</svg>
