<svg width="17" height="18" viewBox="0 0 17 18" fill="none" xmlns="http://www.w3.org/2000/svg">
<path fill-rule="evenodd" clip-rule="evenodd" d="M8.335 17.3399C12.938 17.3399 16.67 13.6079 16.67 9.00492C16.67 4.40192 12.938 0.669922 8.335 0.669922C3.732 0.669922 0 4.40192 0 9.00492C0 13.6079 3.732 17.3399 8.335 17.3399ZM7.5015 4.83742C7.5015 4.60738 7.6882 4.42067 7.91825 4.42067H8.75175C8.9818 4.42067 9.1685 4.60738 9.1685 4.83742V8.17142H12.5025C12.7325 8.17142 12.9193 8.35813 12.9193 8.58817V9.42167C12.9193 9.65172 12.7325 9.83842 12.5025 9.83842H9.1685V13.1724C9.1685 13.4025 8.9818 13.5892 8.75175 13.5892H7.91825C7.6882 13.5892 7.5015 13.4025 7.5015 13.1724V9.83842H4.1675C3.93745 9.83842 3.75075 9.65172 3.75075 9.42167V8.58817C3.75075 8.35813 3.93745 8.17142 4.1675 8.17142H7.5015V4.83742Z" fill="#009132"/>
</svg>
