<svg width="17" height="17" viewBox="0 0 17 17" fill="none" xmlns="http://www.w3.org/2000/svg">
<path d="M8.66508 0C4.06919 0 0.330078 3.73911 0.330078 8.335C0.330078 12.9309 4.06919 16.67 8.66508 16.67C13.261 16.67 17.0001 12.9309 17.0001 8.335C17.0001 3.73911 13.261 0 8.66508 0ZM8.66508 1.25025C12.5853 1.25025 15.7498 4.4148 15.7498 8.335C15.7498 12.2552 12.5853 15.4198 8.66508 15.4198C4.74487 15.4198 1.58033 12.2552 1.58033 8.335C1.58033 4.4148 4.74487 1.25025 8.66508 1.25025ZM5.1227 7.70988C5.03987 7.7087 4.95762 7.72401 4.88075 7.7549C4.80388 7.78579 4.73392 7.83165 4.67492 7.88981C4.61593 7.94798 4.56909 8.01728 4.53711 8.09371C4.50514 8.17014 4.48868 8.25216 4.48868 8.335C4.48868 8.41785 4.50514 8.49986 4.53711 8.57629C4.56909 8.65272 4.61593 8.72202 4.67492 8.78019C4.73392 8.83835 4.80388 8.88421 4.88075 8.9151C4.95762 8.94599 5.03987 8.9613 5.1227 8.96013H12.2075C12.2903 8.9613 12.3725 8.94599 12.4494 8.9151C12.5263 8.88421 12.5962 8.83835 12.6552 8.78019C12.7142 8.72202 12.7611 8.65272 12.793 8.57629C12.825 8.49986 12.8415 8.41785 12.8415 8.335C12.8415 8.25216 12.825 8.17014 12.793 8.09371C12.7611 8.01728 12.7142 7.94798 12.6552 7.88981C12.5962 7.83165 12.5263 7.78579 12.4494 7.7549C12.3725 7.72401 12.2903 7.7087 12.2075 7.70988H5.1227Z" fill="#FE4C4C"/>
</svg>
