<svg width="34" height="22" viewBox="0 0 34 22" fill="none" xmlns="http://www.w3.org/2000/svg">
<path d="M2.04993 0.740384C1.82727 0.737577 1.60621 0.774247 1.39959 0.848262C1.19296 0.922277 1.0049 1.03216 0.846332 1.17153C0.687763 1.3109 0.561848 1.47697 0.475904 1.6601C0.389961 1.84322 0.345703 2.03975 0.345703 2.23825C0.345703 2.43676 0.389961 2.63328 0.475904 2.81641C0.561848 2.99953 0.687763 3.1656 0.846332 3.30497C1.0049 3.44434 1.19296 3.55422 1.39959 3.62824C1.60621 3.70226 1.82727 3.73892 2.04993 3.73612H32.2953C32.518 3.73892 32.739 3.70226 32.9457 3.62824C33.1523 3.55422 33.3403 3.44434 33.4989 3.30497C33.6575 3.1656 33.7834 2.99953 33.8693 2.81641C33.9553 2.63328 33.9995 2.43676 33.9995 2.23825C33.9995 2.03975 33.9553 1.84322 33.8693 1.6601C33.7834 1.47697 33.6575 1.3109 33.4989 1.17153C33.3403 1.03216 33.1523 0.922277 32.9457 0.848262C32.739 0.774247 32.518 0.737577 32.2953 0.740384H2.04993ZM2.04993 9.72759C1.82727 9.72478 1.60621 9.76145 1.39959 9.83546C1.19296 9.90948 1.0049 10.0194 0.846332 10.1587C0.687763 10.2981 0.561848 10.4642 0.475904 10.6473C0.389961 10.8304 0.345703 11.0269 0.345703 11.2255C0.345703 11.424 0.389961 11.6205 0.475904 11.8036C0.561848 11.9867 0.687763 12.1528 0.846332 12.2922C1.0049 12.4315 1.19296 12.5414 1.39959 12.6154C1.60621 12.6895 1.82727 12.7261 2.04993 12.7233H32.2953C32.518 12.7261 32.739 12.6895 32.9457 12.6154C33.1523 12.5414 33.3403 12.4315 33.4989 12.2922C33.6575 12.1528 33.7834 11.9867 33.8693 11.8036C33.9553 11.6205 33.9995 11.424 33.9995 11.2255C33.9995 11.0269 33.9553 10.8304 33.8693 10.6473C33.7834 10.4642 33.6575 10.2981 33.4989 10.1587C33.3403 10.0194 33.1523 9.90948 32.9457 9.83546C32.739 9.76145 32.518 9.72478 32.2953 9.72759H2.04993ZM2.04993 18.7148C1.82727 18.712 1.60621 18.7486 1.39959 18.8227C1.19296 18.8967 1.0049 19.0066 0.846332 19.1459C0.687763 19.2853 0.561848 19.4514 0.475904 19.6345C0.389961 19.8176 0.345703 20.0141 0.345703 20.2127C0.345703 20.4112 0.389961 20.6077 0.475904 20.7908C0.561848 20.9739 0.687763 21.14 0.846332 21.2794C1.0049 21.4187 1.19296 21.5286 1.39959 21.6026C1.60621 21.6767 1.82727 21.7133 2.04993 21.7105H32.2953C32.518 21.7133 32.739 21.6767 32.9457 21.6026C33.1523 21.5286 33.3403 21.4187 33.4989 21.2794C33.6575 21.14 33.7834 20.9739 33.8693 20.7908C33.9553 20.6077 33.9995 20.4112 33.9995 20.2127C33.9995 20.0141 33.9553 19.8176 33.8693 19.6345C33.7834 19.4514 33.6575 19.2853 33.4989 19.1459C33.3403 19.0066 33.1523 18.8967 32.9457 18.8227C32.739 18.7486 32.518 18.712 32.2953 18.7148H2.04993Z" fill="white"/>
</svg>
