<svg width="100" height="100" viewBox="0 0 100 100" fill="none" xmlns="http://www.w3.org/2000/svg">
<path fill-rule="evenodd" clip-rule="evenodd" d="M50 100C77.6142 100 100 77.6142 100 50C100 22.3858 77.6142 0 50 0C22.3858 0 0 22.3858 0 50C0 77.6142 22.3858 100 50 100ZM36.0003 38.6364C36.0003 31.1458 42.1461 25 49.6367 25C57.1273 25 63.2731 31.1458 63.2731 38.6364C63.2731 44.6563 59.6215 48.3047 57.0763 50.6836C56.9135 50.8358 56.755 50.9829 56.6009 51.1258C54.3472 53.2167 53.0458 54.424 53.0458 57.9545C53.0522 58.4063 52.9687 58.8548 52.8003 59.274C52.6318 59.6932 52.3817 60.0748 52.0645 60.3965C51.7473 60.7182 51.3694 60.9737 50.9526 61.148C50.5358 61.3224 50.0885 61.4122 49.6367 61.4122C49.1849 61.4122 48.7376 61.3224 48.3208 61.148C47.9041 60.9737 47.5261 60.7182 47.2089 60.3965C46.8917 60.0748 46.6416 59.6932 46.4731 59.274C46.3047 58.8548 46.2212 58.4063 46.2276 57.9545C46.2276 51.8332 49.8559 48.1038 52.4243 45.7031C52.6168 45.5232 52.8031 45.3509 52.9829 45.1844C55.2037 43.1292 56.4549 41.9713 56.4549 38.6364C56.4549 34.8315 53.4416 31.8182 49.6367 31.8182C45.8319 31.8182 42.8185 34.8315 42.8185 38.6364C42.8249 39.0881 42.7415 39.5366 42.573 39.9558C42.4045 40.375 42.1544 40.7566 41.8372 41.0783C41.5201 41.4 41.1421 41.6555 40.7253 41.8298C40.3085 42.0042 39.8612 42.094 39.4094 42.094C38.9576 42.094 38.5104 42.0042 38.0936 41.8298C37.6768 41.6555 37.2988 41.4 36.9816 41.0783C36.6644 40.7566 36.4143 40.375 36.2459 39.9558C36.0774 39.5366 35.994 39.0881 36.0003 38.6364ZM46.4226 67.2404C47.275 66.388 48.4312 65.9091 49.6367 65.9091C50.8422 65.9091 51.9984 66.388 52.8508 67.2404C53.7033 68.0929 54.1822 69.249 54.1822 70.4545C54.1822 71.6601 53.7033 72.8162 52.8508 73.6687C51.9984 74.5211 50.8422 75 49.6367 75C48.4312 75 47.275 74.5211 46.4226 73.6687C45.5701 72.8162 45.0913 71.6601 45.0913 70.4545C45.0913 69.249 45.5701 68.0929 46.4226 67.2404Z" fill="white"/>
</svg>
