<svg width="538" height="514" viewBox="0 0 538 514" fill="none" xmlns="http://www.w3.org/2000/svg">
<path fill-rule="evenodd" clip-rule="evenodd" d="M478.414 52.656V140.273C475.789 139.468 473.066 138.894 470.265 138.566V116.996C470.265 69.398 431.624 30.758 384.027 30.758H153.257C105.659 30.758 67.0193 69.399 67.0193 116.996V138.566C64.2185 138.894 61.4959 139.468 58.8709 140.273V52.656C70.6639 50.1404 79.5189 39.656 79.5189 27.113C79.5189 12.703 67.8159 1 53.4019 1C38.9879 1 27.2849 12.703 27.2849 27.113C27.2849 39.656 36.1404 50.14 47.9329 52.656V145.25C34.7299 153.469 25.9409 168.113 25.9409 184.793V210.734C25.9409 216.461 26.9761 221.945 28.8706 227.011C29.9253 229.839 33.0776 231.277 35.9058 230.218C38.7339 229.163 40.1714 226.011 39.1167 223.183C37.6675 219.308 36.8784 215.112 36.8784 210.734V184.793C36.8784 167 49.9564 152.238 67.0194 149.602V245.926C58.7811 244.652 51.4684 240.555 46.1134 234.649C44.0822 232.414 40.6251 232.247 38.3868 234.278C36.1524 236.305 35.9845 239.766 38.0118 242C45.379 250.114 55.5668 255.621 67.0198 256.965V278.535C67.0198 319.82 96.0938 354.367 134.864 362.805V369.782C133.719 369.68 132.563 369.626 131.395 369.626C122.743 369.626 114.754 372.505 108.34 377.356L77.356 359.305C75.5162 339.895 59.153 324.688 39.262 324.688C18.145 324.688 1 341.833 1 362.95C1 384.067 18.145 401.212 39.262 401.212C45.2542 401.212 50.93 399.829 55.985 397.368L95.071 419.934C100.126 435.161 114.485 446.149 131.395 446.149C134.626 446.149 137.766 445.751 140.762 444.993C152.032 471.372 178.219 489.876 208.696 489.876H223.294C233.415 503.993 249.962 513.196 268.646 513.196C287.326 513.196 303.873 503.993 313.994 489.876H328.592C359.069 489.876 385.256 471.372 396.526 444.993C399.522 445.751 402.663 446.149 405.893 446.149C422.803 446.149 437.166 435.161 442.217 419.934L481.604 397.196C486.749 399.767 492.545 401.212 498.678 401.212C519.795 401.212 536.94 384.067 536.94 362.95C536.94 341.833 519.795 324.688 498.678 324.688C478.928 324.688 462.651 339.684 460.627 358.903L428.947 377.356C422.533 372.504 414.545 369.626 405.892 369.626C404.724 369.626 403.568 369.68 402.424 369.782V362.805C441.197 354.368 470.268 319.821 470.268 278.535V256.965C493.385 254.254 511.35 234.574 511.35 210.735V184.794C511.35 168.114 502.557 153.47 489.354 145.251V52.6572C501.147 50.1416 510.002 39.6572 510.002 27.1142C510.002 12.7042 498.299 1.00121 483.885 1.00121C469.471 1.00121 457.768 12.7042 457.768 27.1142C457.768 39.6572 466.623 50.1412 478.416 52.6572L478.414 52.656ZM299.564 489.876H237.728C245.771 497.548 256.662 502.259 268.646 502.259C280.626 502.259 291.517 497.548 299.564 489.876ZM408.494 45.766C400.826 43.1293 392.596 41.6996 384.033 41.6996H153.263C146.192 41.6996 139.349 42.6762 132.865 44.4965C129.947 53.0668 128.369 62.2505 128.369 71.7975V239.938C128.369 286.715 166.346 324.695 213.123 324.695H327.823C374.6 324.695 412.577 286.716 412.577 239.938V134.087C412.577 131.072 415.03 128.619 418.045 128.619C421.065 128.619 423.514 131.072 423.514 134.087V239.938C423.514 292.75 380.635 335.633 327.823 335.633H213.123C160.311 335.633 117.432 292.75 117.432 239.938V71.7975C117.432 64.0866 118.346 56.5865 120.073 49.3995C95.1348 61.6805 77.9638 87.3485 77.9638 117.001V278.542C77.9638 320.101 111.706 353.843 153.265 353.843H162.652C165.667 353.843 168.12 356.292 168.12 359.311C168.12 362.331 165.667 364.78 162.652 364.78H153.265C150.753 364.78 148.265 364.671 145.808 364.46V376.226V376.441V391.496H184.843C186.292 391.496 187.687 392.07 188.71 393.097L222.913 427.3C223.936 428.324 224.515 429.714 224.515 431.167V478.944H309.499C310.545 478.585 311.694 478.542 312.784 478.851V431.167C312.784 429.714 313.362 428.323 314.385 427.299L348.588 393.096C349.616 392.069 351.006 391.495 352.456 391.495H391.491V376.44V376.225V364.459C389.038 364.67 386.549 364.779 384.034 364.779H206.734C203.718 364.779 201.265 362.33 201.265 359.311C201.265 356.291 203.718 353.842 206.734 353.842H384.034C425.596 353.842 459.335 320.1 459.335 278.541V117.001C459.335 89.0207 444.046 64.5868 421.374 51.6058C422.772 58.1175 423.51 64.8718 423.51 71.7968V87.9958C423.51 91.0114 421.061 93.4646 418.042 93.4646C415.026 93.4646 412.573 91.0115 412.573 87.9958V71.7968C412.573 62.7187 411.147 53.9687 408.495 45.7657L408.494 45.766ZM145.804 402.426V416.039C145.804 423.008 146.936 429.711 149.034 435.98C149.046 436.003 149.054 436.027 149.065 436.05C149.171 436.304 149.257 436.562 149.319 436.816C157.909 461.336 181.264 478.937 208.698 478.937H213.573V433.425L182.573 402.425L145.804 402.426ZM391.484 402.426H354.714L323.714 433.426V478.938H328.589C356.023 478.938 379.378 461.336 387.968 436.817C388.034 436.563 388.116 436.305 388.222 436.051C388.233 436.028 388.245 436.005 388.253 435.981C390.351 429.712 391.483 423.008 391.483 416.04L391.484 402.426ZM268.644 383.078C247.523 383.078 230.378 400.223 230.378 421.34C230.378 442.457 247.523 459.602 268.644 459.602C289.761 459.602 306.906 442.457 306.906 421.34C306.906 400.223 289.761 383.078 268.644 383.078ZM268.644 394.016C283.722 394.016 295.968 406.258 295.968 421.34C295.968 436.422 283.722 448.664 268.644 448.664C253.562 448.664 241.316 436.422 241.316 421.34C241.316 406.258 253.562 394.016 268.644 394.016ZM424.524 387.907C419.641 383.352 413.09 380.563 405.895 380.563C404.719 380.563 403.563 380.637 402.426 380.782V416.04C402.426 422.446 401.609 428.665 400.074 434.591C401.949 435.001 403.898 435.212 405.895 435.212C420.977 435.212 433.219 422.97 433.219 407.888C433.219 400.102 429.957 393.076 424.726 388.095C424.656 388.032 424.59 387.97 424.523 387.907L424.524 387.907ZM134.864 380.782C133.727 380.637 132.571 380.563 131.395 380.563C124.2 380.563 117.649 383.352 112.766 387.907C112.699 387.969 112.633 388.032 112.567 388.094C107.332 393.075 104.071 400.102 104.071 407.887C104.071 422.969 116.313 435.211 131.395 435.211C133.391 435.211 135.34 435 137.215 434.59C135.68 428.664 134.863 422.445 134.863 416.039L134.864 380.782ZM76.5627 371.504C74.883 378.844 71.09 385.383 65.8637 390.442L93.1687 406.208C93.5046 398.458 96.1531 391.302 100.438 385.411L76.5627 371.504ZM461.303 371.168L436.85 385.41C441.139 391.301 443.783 398.457 444.119 406.207L471.834 390.207C466.651 385.102 462.916 378.531 461.303 371.168H461.303ZM53.3027 386.395C61.2597 381.618 66.5917 372.903 66.5917 362.95C66.5917 347.868 54.3497 335.626 39.2677 335.626C24.1857 335.626 11.9437 347.868 11.9437 362.95C11.9437 378.028 24.1857 390.274 39.2677 390.274C44.3693 390.274 49.1466 388.872 53.2327 386.438L53.2483 386.427C53.2561 386.423 53.2639 386.419 53.2757 386.411L53.3027 386.395ZM498.683 335.625C513.765 335.625 526.007 347.867 526.007 362.949C526.007 378.027 513.765 390.273 498.683 390.273C483.601 390.273 471.359 378.027 471.359 362.949C471.359 347.867 483.601 335.625 498.683 335.625ZM179.063 364.773H190.333C193.352 364.773 195.801 362.324 195.801 359.305C195.801 356.285 193.352 353.836 190.333 353.836H179.063C176.043 353.836 173.594 356.285 173.594 359.305C173.594 362.324 176.043 364.773 179.063 364.773ZM247.7 257.013C247.641 253.174 249.977 250.42 253.219 248.498C257.457 245.99 263.157 244.826 268.844 244.826C274.543 244.826 280.274 245.998 284.555 248.509C287.86 250.447 290.266 253.224 290.266 257.099C290.266 260.119 292.715 262.568 295.735 262.568C298.751 262.568 301.204 260.119 301.204 257.099C301.204 250.623 298.325 245.408 293.614 241.521C287.587 236.556 278.235 233.888 268.844 233.888C259.438 233.888 250.11 236.572 244.149 241.545C239.477 245.447 236.661 250.681 236.762 257.186C236.809 260.201 239.297 262.615 242.313 262.568C245.333 262.522 247.747 260.033 247.7 257.014V257.013ZM470.28 149.603V245.927C487.342 243.295 500.425 228.529 500.425 210.736V184.795C500.425 167.002 487.343 152.24 470.28 149.604V149.603ZM177.07 163.74C177.07 178.552 189.097 190.58 203.91 190.58C218.726 190.58 230.75 178.553 230.75 163.74C230.75 160.725 228.3 158.272 225.281 158.272C222.265 158.272 219.812 160.725 219.812 163.74C219.812 172.518 212.687 179.642 203.91 179.642C195.133 179.642 188.008 172.517 188.008 163.74C188.008 160.725 185.559 158.272 182.539 158.272C179.524 158.272 177.071 160.725 177.071 163.74H177.07ZM307.23 163.74C307.23 178.552 319.253 190.58 334.07 190.58C348.882 190.58 360.91 178.553 360.91 163.74C360.91 160.725 358.457 158.272 355.441 158.272C352.421 158.272 349.972 160.725 349.972 163.74C349.972 172.518 342.847 179.642 334.07 179.642C325.293 179.642 318.168 172.517 318.168 163.74C318.168 160.725 315.715 158.272 312.699 158.272C309.68 158.272 307.231 160.725 307.231 163.74H307.23ZM423.53 117.678V104.401C423.53 101.382 421.081 98.9326 418.061 98.9326C415.045 98.9326 412.592 101.382 412.592 104.401V117.678C412.592 120.698 415.045 123.147 418.061 123.147C421.08 123.147 423.53 120.698 423.53 117.678ZM483.909 11.9384C492.288 11.9384 499.089 18.7392 499.089 27.1144C499.089 35.4933 492.288 42.2984 483.909 42.2984C475.53 42.2984 468.729 35.4937 468.729 27.1144C468.729 18.7394 475.529 11.9384 483.909 11.9384ZM53.4287 11.9384C61.8076 11.9384 68.6087 18.7392 68.6087 27.1144C68.6087 35.4933 61.8079 42.2984 53.4287 42.2984C45.0537 42.2984 38.2487 35.4937 38.2487 27.1144C38.2487 18.7394 45.0534 11.9384 53.4287 11.9384Z" fill="black" stroke="black"/>
</svg>
