<svg width="100" height="100" viewBox="0 0 100 100" fill="none" xmlns="http://www.w3.org/2000/svg">
<path fill-rule="evenodd" clip-rule="evenodd" d="M100 50C100 77.6142 77.6142 100 50 100C22.3858 100 0 77.6142 0 50C0 22.3858 22.3858 0 50 0C77.6142 0 100 22.3858 100 50ZM50 22.8261C46.3965 22.8261 42.9406 24.2576 40.3926 26.8056C37.8445 29.3537 36.413 32.8096 36.413 36.413C36.413 40.0165 37.8445 43.4724 40.3926 46.0205C42.9406 48.5685 46.3965 50 50 50C53.6035 50 57.0594 48.5685 59.6074 46.0205C62.1555 43.4724 63.587 40.0165 63.587 36.413C63.587 32.8096 62.1555 29.3537 59.6074 26.8056C57.0594 24.2576 53.6035 22.8261 50 22.8261ZM28.2609 60.841C28.2609 57.8601 30.6861 55.4348 33.6671 55.4348H66.3329C69.3139 55.4348 71.7391 57.8601 71.7391 60.841V62.9076C71.7391 72.7092 60.4701 77.1739 50 77.1739C44.5 77.1739 39.3397 75.9986 35.4715 73.8628C30.822 71.2989 28.2609 67.4076 28.2609 62.9076V60.841Z" fill="white"/>
</svg>
