<svg width="100" height="100" viewBox="0 0 100 100" fill="none" xmlns="http://www.w3.org/2000/svg">
<rect width="100" height="100" rx="50" fill="white"/>
<path d="M43 61.815H31.325L29.055 70H20L33.245 30H41.075L54.41 70H45.27L43 61.815ZM33.19 55.08H41.11L37.15 40.82L33.19 55.08ZM64.105 40L64.34 43.215C66.2 40.89 68.635 40 71.645 40C77.06 40 79.845 43.305 80 50.465V70H71.73V51.045C71.73 49.36 71.465 48.135 70.93 47.375C70.395 46.615 69.46 46.235 68.12 46.235C66.625 46.235 65.46 46.96 64.625 48.405V70H56.355V40H64.105Z" fill="#57BDDB"/>
</svg>
