<svg width="100" height="100" viewBox="0 0 100 100" fill="none" xmlns="http://www.w3.org/2000/svg">
<rect width="100" height="100" rx="50" fill="white"/>
<path d="M34.9322 27.6758C31.2923 27.6758 28.3027 30.6653 28.3027 34.3052V57.1788C28.3027 58.9359 28.9999 60.6233 30.2426 61.866L37.2111 68.8368C37.225 68.8496 37.2391 68.8622 37.2535 68.8745C38.4674 70.2173 40.2156 71.0686 42.1643 71.0686H58.5073C57.8938 70.4696 57.4587 69.6884 57.2996 68.8109L57.0524 67.4526H42.1643C40.5034 67.4526 39.151 66.1002 39.151 64.4392V38.524H65.0661C66.7271 38.524 68.0795 39.8764 68.0795 41.5374V56.4819L71.6956 59.2952V41.5374C71.6956 39.5952 70.8505 37.8518 69.5156 36.6383C69.4987 36.6199 69.4814 36.6018 69.4638 36.5841L62.493 29.6157C61.2497 28.3724 59.5622 27.6758 57.8057 27.6758H34.9322ZM34.9322 31.2919H57.8057C58.6047 31.2919 59.3715 31.6099 59.9363 32.1747L62.6695 34.9079H38.5483C38.4066 34.9079 38.2704 34.9313 38.1339 34.9503L34.6073 31.4237C34.7307 31.4088 34.8043 31.2919 34.9322 31.2919ZM32.0506 33.9804L35.5773 37.507C35.5582 37.6435 35.5349 37.7797 35.5349 37.9213V62.0426L32.8016 59.3093C32.2363 58.744 31.9188 57.9794 31.9188 57.1788V34.3052C31.9188 34.1773 32.0358 34.1037 32.0506 33.9804ZM59.1453 52.9906C58.7876 52.97 58.4224 53.0561 58.1024 53.2496C57.4611 53.6377 57.1269 54.3812 57.2619 55.1188L59.6726 68.3778C59.8076 69.1215 60.392 69.7049 61.137 69.835C61.2418 69.8555 61.3464 69.8633 61.4501 69.8633C62.0841 69.8633 62.6831 69.5304 63.0109 68.9687L64.2916 66.7793L67.1426 71.4124C67.2627 71.6229 67.424 71.8071 67.6168 71.954C67.8095 72.101 68.0299 72.2077 68.2647 72.2678C68.4996 72.3278 68.7441 72.3401 68.9838 72.3038C69.2234 72.2675 69.4533 72.1834 69.6598 72.0564C69.8664 71.9295 70.0452 71.7623 70.1858 71.5649C70.3265 71.3674 70.4259 71.1437 70.4784 70.9071C70.5308 70.6704 70.5351 70.4256 70.491 70.1873C70.447 69.9489 70.3554 69.7218 70.2219 69.5196L67.4816 65.0654L69.9064 65.0419C70.6754 65.0346 71.3555 64.5398 71.6014 63.8106C71.8473 63.0814 71.605 62.2797 70.9988 61.8072L60.1505 53.3697C59.8546 53.1394 59.503 53.0113 59.1453 52.9906Z" fill="#57BDDB"/>
</svg>
