<svg width="100" height="100" viewBox="0 0 100 100" fill="none" xmlns="http://www.w3.org/2000/svg">
<rect width="100" height="100" rx="50" fill="white"/>
<path d="M50 41.4148C36.9031 41.4148 26.1542 51.444 25 64.2398H75C73.8458 51.444 63.0969 41.4148 50 41.4148ZM59.5615 54.9471C59.5615 53.7971 60.4938 52.8648 61.6438 52.8648C62.7938 52.8648 63.726 53.7971 63.726 54.9471C63.726 56.0971 62.7938 57.0294 61.6438 57.0294C60.4938 57.0294 59.5615 56.0971 59.5615 54.9471ZM38.3562 57.0294C37.2062 57.0294 36.274 56.0971 36.274 54.9471C36.274 53.7971 37.2062 52.8648 38.3562 52.8648C39.5063 52.8648 40.4385 53.7971 40.4385 54.9471C40.4385 56.0971 39.5063 57.0294 38.3562 57.0294Z" fill="#57BDDB"/>
<path d="M60.4574 46.8574C60.3115 46.8574 60.1647 46.821 60.0303 46.7428C59.6209 46.5064 59.4813 45.9835 59.7167 45.5741L65.1303 36.1907C65.3667 35.7803 65.8897 35.6397 66.299 35.8772C66.7084 36.1137 66.848 36.6366 66.6126 37.046L61.199 46.4293C61.0407 46.7043 60.7532 46.8574 60.4574 46.8574Z" fill="#57BDDB"/>
<path d="M39.5449 46.8574C39.2491 46.8574 38.9616 46.7032 38.8032 46.4293L33.3907 37.046C33.1543 36.6366 33.2949 36.1137 33.7032 35.8772C34.1116 35.6397 34.6355 35.7803 34.872 36.1907L40.2855 45.5741C40.522 45.9845 40.3814 46.5074 39.972 46.7428C39.8376 46.821 39.6907 46.8574 39.5449 46.8574Z" fill="#57BDDB"/>
</svg>
