<svg width="100" height="100" viewBox="0 0 100 100" fill="none" xmlns="http://www.w3.org/2000/svg">
<rect width="100" height="100" rx="50" fill="white"/>
<path d="M37.4787 30.0535C34.5365 29.8079 31.1579 31.006 28.5693 33.5659C24.4307 37.6588 23.8137 43.627 27.1246 46.9013C29.3444 49.0965 32.7607 49.5207 36.0339 48.3301C35.1159 50.2798 34.5892 52.4676 34.5892 54.7596C34.5892 63.1761 41.4894 70 50 70C58.5106 70 65.4108 63.1761 65.4108 54.7596C65.4108 52.4676 64.8841 50.2798 63.9661 48.3301C67.2393 49.5207 70.6556 49.0965 72.8754 46.9013C76.1863 43.627 75.5693 37.6588 71.4307 33.5659C67.292 29.473 61.2571 28.8033 57.9462 32.0776C55.7264 34.2729 55.2975 37.7109 56.5014 40.948C54.5299 40.0401 52.3176 39.5192 50 39.5192C47.6824 39.5192 45.4701 40.0401 43.4986 40.948C44.7025 37.7109 44.2736 34.3324 42.0538 32.1371C40.8122 30.9093 39.2395 30.2023 37.4787 30.0535Z" fill="#57BDDB"/>
</svg>
