<svg width="100" height="100" viewBox="0 0 100 100" fill="none" xmlns="http://www.w3.org/2000/svg">
<rect width="100" height="100" rx="50" fill="white"/>
<path d="M45 31.2109C51.3021 31.2109 57.1289 33.9571 60.9049 38.63L53.6003 42.6055C51.4062 40.3486 48.2878 39.0397 45 39.0397C38.5677 39.0397 33.3333 43.9572 33.3333 50.0001C33.3333 56.0429 38.5677 60.9604 45 60.9604C48.2878 60.9604 51.4062 59.6515 53.6003 57.3946L60.9049 61.3702C57.1289 66.043 51.3021 68.7892 45 68.7892C33.9714 68.7892 25 60.361 25 50.0001C25 39.6391 33.9714 31.2109 45 31.2109ZM61.6667 42.1713H65V45.3028H68.3333V42.1713H71.6667V45.3028H75V48.4343H71.6667V51.5658H75V54.6974H71.6667V57.8289H68.3333V54.6974H65V57.8289H61.6667V54.6974H58.3333V51.5658H61.6667V48.4343H58.3333V45.3028H61.6667V42.1713ZM65 48.4343V51.5658H68.3333V48.4343H65Z" fill="#57BDDB"/>
</svg>
