<svg width="100" height="100" viewBox="0 0 100 100" fill="none" xmlns="http://www.w3.org/2000/svg">
<circle cx="50" cy="50" r="50" fill="white"/>
<path d="M49.6367 25C42.1461 25 36.0003 31.1458 36.0003 38.6364C35.994 39.0881 36.0774 39.5366 36.2459 39.9558C36.4143 40.375 36.6644 40.7566 36.9816 41.0783C37.2988 41.4 37.6768 41.6555 38.0936 41.8298C38.5104 42.0042 38.9576 42.094 39.4094 42.094C39.8612 42.094 40.3085 42.0042 40.7253 41.8298C41.1421 41.6555 41.52 41.4 41.8372 41.0783C42.1544 40.7566 42.4045 40.375 42.573 39.9558C42.7414 39.5366 42.8249 39.0881 42.8185 38.6364C42.8185 34.8315 45.8319 31.8182 49.6367 31.8182C53.4416 31.8182 56.4549 34.8315 56.4549 38.6364C56.4549 42.2414 54.9928 43.3025 52.4243 45.7031C49.8559 48.1038 46.2276 51.8332 46.2276 57.9545C46.2212 58.4063 46.3047 58.8548 46.4731 59.274C46.6416 59.6932 46.8917 60.0748 47.2089 60.3965C47.5261 60.7182 47.9041 60.9737 48.3208 61.148C48.7376 61.3224 49.1849 61.4122 49.6367 61.4122C50.0885 61.4122 50.5358 61.3224 50.9526 61.148C51.3694 60.9737 51.7473 60.7182 52.0645 60.3965C52.3817 60.0748 52.6318 59.6932 52.8003 59.274C52.9687 58.8548 53.0522 58.4063 53.0458 57.9545C53.0458 54.1827 54.5311 53.0625 57.0763 50.6836C59.6215 48.3047 63.2731 44.6563 63.2731 38.6364C63.2731 31.1458 57.1273 25 49.6367 25ZM49.6367 65.9091C48.4312 65.9091 47.275 66.388 46.4226 67.2404C45.5701 68.0929 45.0913 69.249 45.0913 70.4545C45.0913 71.6601 45.5701 72.8162 46.4226 73.6687C47.275 74.5211 48.4312 75 49.6367 75C50.8422 75 51.9984 74.5211 52.8508 73.6687C53.7033 72.8162 54.1822 71.6601 54.1822 70.4545C54.1822 69.249 53.7033 68.0929 52.8508 67.2404C51.9984 66.388 50.8422 65.9091 49.6367 65.9091Z" fill="#57BDDB"/>
</svg>
