<svg width="100" height="100" viewBox="0 0 100 100" fill="none" xmlns="http://www.w3.org/2000/svg">
<rect width="100" height="100" rx="50" fill="white"/>
<path d="M73.2143 65.9326H26.7857C25.7991 65.9326 25 65.1403 25 64.1621V35.8349C25 34.8567 25.7991 34.0645 26.7857 34.0645H73.2143C74.2009 34.0645 75 34.8567 75 35.8349V64.1621C75 65.1403 74.2009 65.9326 73.2143 65.9326Z" fill="#57BDDB"/>
<path d="M70.5346 62.3937H29.4632C28.9703 62.3937 28.5703 61.9972 28.5703 61.5085V38.4926C28.5703 38.004 28.9703 37.6074 29.4632 37.6074H70.5346C71.0275 37.6074 71.4275 38.004 71.4275 38.4926V61.5085C71.4275 61.9972 71.0275 62.3937 70.5346 62.3937Z" fill="black" fill-opacity="0.3"/>
<path d="M46.4297 65.9336H53.5725V69.4745H46.4297V65.9336Z" fill="#57BDDB"/>
<path d="M60.7137 71.2451H39.2852C39.2852 70.2669 40.0843 69.4746 41.0709 69.4746H58.928C59.9146 69.4746 60.7137 70.2669 60.7137 71.2451Z" fill="#57BDDB"/>
<path d="M46.4297 65.9336H53.5725V66.8188H46.4297V65.9336Z" fill="black" fill-opacity="0.48"/>
<path d="M37.5 36.8652V48.9742C37.5 49.6098 37.8437 50.1958 38.4 50.5109L49.1143 56.5809C49.6634 56.8916 50.3375 56.8916 50.8866 56.5809L61.6009 50.5109C62.1562 50.1958 62.5 49.6089 62.5 48.9733V36.8652C62.5 36.2296 62.1563 35.6436 61.6 35.3284L50.8857 29.2584C50.3366 28.9477 49.6625 28.9477 49.1134 29.2584L38.3991 35.3284C37.8437 35.6427 37.5 36.2296 37.5 36.8652V36.8652Z" fill="#57BDDB"/>
<path d="M49.1143 56.5777C49.3384 56.7043 49.583 56.7787 49.8321 56.8026C49.9411 56.5716 50 56.3157 50 56.0519V43.9438C50 43.3082 49.6563 42.7222 49.1 42.4062L38.3857 36.3362C38.1616 36.2096 37.917 36.1352 37.6679 36.1113C37.5589 36.3424 37.5 36.5982 37.5 36.862V48.971C37.5 49.6066 37.8437 50.1926 38.4 50.5078L49.1143 56.5777Z" fill="#F0F0F0"/>
<path d="M62.5003 56.1973C62.0065 56.1973 61.6074 56.593 61.6074 57.0825V57.9677H38.3931V57.0825C38.3931 56.593 37.994 56.1973 37.5003 56.1973C37.0065 56.1973 36.6074 56.593 36.6074 57.0825V60.6234C36.6074 61.1129 37.0065 61.5086 37.5003 61.5086C37.994 61.5086 38.3931 61.1129 38.3931 60.6234V59.7382H61.6074V60.6234C61.6074 61.1129 62.0065 61.5086 62.5003 61.5086C62.994 61.5086 63.3931 61.1129 63.3931 60.6234V57.0825C63.3931 56.593 62.994 56.1973 62.5003 56.1973Z" fill="#57BDDB"/>
<path d="M69.644 56.1959H68.7511V30.5244H69.644C70.1377 30.5244 70.5368 30.1287 70.5368 29.6391C70.5368 29.1496 70.1377 28.7539 69.644 28.7539H66.0725C65.5788 28.7539 65.1797 29.1496 65.1797 29.6391C65.1797 30.1287 65.5788 30.5244 66.0725 30.5244H66.9654V56.1959H66.0725C65.5788 56.1959 65.1797 56.5916 65.1797 57.0811C65.1797 57.5707 65.5788 57.9664 66.0725 57.9664H69.644C70.1377 57.9664 70.5368 57.5707 70.5368 57.0811C70.5368 56.5916 70.1377 56.1959 69.644 56.1959Z" fill="#57BDDB"/>
</svg>
