<svg width="100" height="100" viewBox="0 0 100 100" fill="none" xmlns="http://www.w3.org/2000/svg">
<rect width="100" height="100" rx="50" fill="white"/>
<path d="M50.6374 25.0001C48.5913 25.0067 47.1729 25.1869 45.4584 25.483C40.3953 26.3646 39.4729 28.2159 39.4729 31.6277V36.8422H51.315V39.4737H33.2993C29.8308 39.4737 26.7953 41.1079 25.8335 45.025C24.7466 49.5211 24.698 52.3368 25.8335 57.0316C26.6953 60.5329 28.594 63.1579 32.0637 63.1579H36.8427V56.4421C36.8427 52.5395 40.3769 48.6842 44.4268 48.6842H53.9479C57.2676 48.6842 60.5268 46.2342 60.5268 42.925V31.6277C60.5268 28.4185 58.2123 26.0185 54.9768 25.4804C55.0571 25.4725 52.6663 24.9922 50.6374 25.0001ZM44.0795 30.2632C45.1597 30.2632 46.0532 31.154 46.0532 32.2395C46.0532 33.3356 45.1597 34.2106 44.0795 34.2106C42.9782 34.2106 42.1058 33.3369 42.1058 32.2395C42.1058 31.158 42.9782 30.2632 44.0795 30.2632Z" fill="#57BDDB"/>
<path d="M49.3624 74.9999C51.4085 74.9933 52.8269 74.8131 54.5413 74.517C59.6045 73.6355 60.5268 71.7841 60.5268 68.3723V63.1579H48.6848V60.5263H66.7018C70.1702 60.5263 73.2057 58.8921 74.1676 54.975C75.2544 50.479 75.3031 47.6632 74.1676 42.9685C73.3044 39.4672 71.4057 36.8422 67.936 36.8422H63.1571V43.5579C63.1571 47.4605 59.6229 51.3158 55.5729 51.3158H46.0519C42.7322 51.3158 39.473 53.7658 39.473 57.075V68.3723C39.473 71.5815 41.7874 73.9815 45.023 74.5197C44.9427 74.5276 47.3335 75.0078 49.3624 74.9999ZM55.9216 69.7368C54.8413 69.7368 53.9479 68.846 53.9479 67.7605C53.9479 66.6644 54.8413 65.7894 55.9216 65.7894C57.0229 65.7894 57.8953 66.6631 57.8953 67.7605C57.8953 68.8421 57.0216 69.7368 55.9216 69.7368Z" fill="#57BDDB"/>
</svg>
