<svg width="100" height="100" viewBox="0 0 100 100" fill="none" xmlns="http://www.w3.org/2000/svg">
<rect width="100" height="100" rx="50" fill="white"/>
<path d="M43.1251 23.1074C41.9647 23.1074 40.8519 23.5684 40.0315 24.3888C39.211 25.2093 38.7501 26.3221 38.7501 27.4824V33.7323C38.7501 34.8927 39.211 36.0054 40.0315 36.8259C40.8519 37.6464 41.9647 38.1073 43.1251 38.1073H48.125V40.6H40.1246C39.3911 40.6005 38.6695 40.7855 38.0261 41.1379C37.3828 41.4902 36.8384 41.9987 36.443 42.6166C35.6721 42.1468 34.7498 41.85 33.7501 41.85C32.2397 41.85 30.8695 42.4839 30.005 43.4564C29.1406 44.4289 28.7502 45.652 28.7502 46.8499C28.7502 48.0478 29.1406 49.2709 30.005 50.2434C30.2283 50.4946 30.5629 50.6456 30.8473 50.8465L29.0651 59.5085C28.1855 59.6638 27.324 59.967 26.6066 60.6047C25.6341 61.4692 25.0002 62.8394 25.0002 64.3498C24.9967 64.5982 25.0426 64.8449 25.1352 65.0755C25.2279 65.306 25.3654 65.5159 25.5399 65.6928C25.7143 65.8698 25.9222 66.0103 26.1515 66.1062C26.3807 66.2021 26.6267 66.2515 26.8752 66.2515C27.1237 66.2515 27.3697 66.2021 27.5989 66.1062C27.8281 66.0103 28.036 65.8698 28.2105 65.6928C28.3849 65.5159 28.5225 65.306 28.6151 65.0755C28.7078 64.8449 28.7537 64.5982 28.7502 64.3498C28.7502 63.7769 28.8975 63.5846 29.0968 63.4074C29.2962 63.2302 29.6356 63.0998 30.0002 63.0998C30.3647 63.0998 30.7041 63.2302 30.9035 63.4074C31.1028 63.5846 31.2501 63.7769 31.2501 64.3498C31.2466 64.5982 31.2925 64.8449 31.3852 65.0755C31.4778 65.306 31.6154 65.5159 31.7898 65.6928C31.9643 65.8698 32.1722 66.0103 32.4014 66.1062C32.6306 66.2021 32.8766 66.2515 33.1251 66.2515C33.3736 66.2515 33.6196 66.2021 33.8488 66.1062C34.0781 66.0103 34.286 65.8698 34.4604 65.6928C34.6349 65.5159 34.7724 65.306 34.8651 65.0755C34.9577 64.8449 35.0036 64.5982 35.0001 64.3498C35.0001 62.8394 34.3662 61.4692 33.3937 60.6047C33.1978 60.4305 32.9583 60.3578 32.7443 60.2214L34.4996 51.6936C35.4954 51.5457 36.4072 51.1787 37.0997 50.5999L39.5655 59.8503C39.8137 60.7827 40.3632 61.6068 41.1284 62.1945C41.8936 62.7822 42.8316 63.1005 43.7964 63.0998H56.2036C57.168 63.1 58.1054 62.7815 58.8701 62.1938C59.6349 61.6061 60.1839 60.7823 60.4321 59.8503L62.8979 50.5974C63.5906 51.1776 64.5034 51.5455 65.5004 51.6936L67.2557 60.2214C67.0417 60.3578 66.8022 60.4305 66.6063 60.6047C65.6338 61.4692 64.9999 62.8394 64.9999 64.3498C64.9964 64.5982 65.0423 64.8449 65.1349 65.0755C65.2276 65.306 65.3651 65.5159 65.5396 65.6928C65.714 65.8698 65.9219 66.0103 66.1512 66.1062C66.3804 66.2021 66.6264 66.2515 66.8749 66.2515C67.1234 66.2515 67.3694 66.2021 67.5986 66.1062C67.8278 66.0103 68.0357 65.8698 68.2102 65.6928C68.3846 65.5159 68.5222 65.306 68.6148 65.0755C68.7075 64.8449 68.7534 64.5982 68.7499 64.3498C68.7499 63.7769 68.8972 63.5846 69.0965 63.4074C69.2959 63.2302 69.6353 63.0998 69.9998 63.0998C70.3644 63.0998 70.7038 63.2302 70.9032 63.4074C71.1025 63.5846 71.2498 63.7769 71.2498 64.3498C71.2463 64.5982 71.2922 64.8449 71.3849 65.0755C71.4775 65.306 71.6151 65.5159 71.7895 65.6928C71.964 65.8698 72.1719 66.0103 72.4011 66.1062C72.6303 66.2021 72.8763 66.2515 73.1248 66.2515C73.3733 66.2515 73.6193 66.2021 73.8485 66.1062C74.0778 66.0103 74.2857 65.8698 74.4601 65.6928C74.6346 65.5159 74.7721 65.306 74.8648 65.0755C74.9574 64.8449 75.0033 64.5982 74.9998 64.3498C74.9998 62.8394 74.3659 61.4692 73.3934 60.6047C72.676 59.967 71.8145 59.6638 70.9349 59.5085L69.1527 50.8465C69.4371 50.6456 69.7717 50.4946 69.995 50.2434C70.8594 49.2709 71.2498 48.0478 71.2498 46.8499C71.2498 45.652 70.8594 44.4289 69.995 43.4564C69.1305 42.4839 67.7603 41.85 66.2499 41.85C65.2482 41.85 64.3239 42.1475 63.5521 42.619C63.4859 42.5126 63.415 42.4092 63.3397 42.3089C62.9333 41.7761 62.4091 41.3445 61.8081 41.048C61.2071 40.7515 60.5456 40.5982 59.8754 40.6H51.875V38.1073H56.8749C58.0353 38.1073 59.1481 37.6464 59.9685 36.8259C60.789 36.0054 61.2499 34.8927 61.2499 33.7323V27.4824C61.2499 26.3221 60.789 25.2093 59.9685 24.3888C59.1481 23.5684 58.0353 23.1074 56.8749 23.1074H43.1251ZM46.1988 29.3598C46.367 29.3529 46.5348 29.3801 46.6923 29.4396C46.8498 29.4992 46.9936 29.5899 47.1151 29.7065C47.2366 29.823 47.3333 29.9628 47.3995 30.1176C47.4656 30.2724 47.4998 30.439 47.5 30.6074C47.5 30.9389 47.3683 31.2568 47.1339 31.4912C46.8995 31.7257 46.5815 31.8574 46.25 31.8574C45.927 31.8513 45.6189 31.7205 45.3903 31.4923C45.1616 31.2641 45.0302 30.9562 45.0236 30.6332C45.017 30.3103 45.1356 29.9973 45.3547 29.7598C45.5738 29.5224 45.8763 29.3791 46.1988 29.3598ZM53.6987 29.3598C53.8669 29.3529 54.0348 29.3801 54.1922 29.4396C54.3497 29.4992 54.4935 29.5899 54.615 29.7065C54.7366 29.823 54.8333 29.9628 54.8994 30.1176C54.9656 30.2724 54.9998 30.439 55 30.6074C55 30.9389 54.8683 31.2568 54.6338 31.4912C54.3994 31.7257 54.0815 31.8574 53.75 31.8574C53.427 31.8513 53.1189 31.7205 52.8902 31.4923C52.6616 31.2641 52.5302 30.9562 52.5235 30.6332C52.5169 30.3103 52.6356 29.9973 52.8547 29.7598C53.0737 29.5224 53.3762 29.3791 53.6987 29.3598ZM33.7501 45.5999C34.323 45.5999 34.5153 45.7473 34.6925 45.9466C34.8697 46.1459 35.0001 46.4853 35.0001 46.8499C35.0001 47.2145 34.8697 47.5539 34.6925 47.7532C34.5153 47.9526 34.323 48.0999 33.7501 48.0999C33.1772 48.0999 32.9849 47.9526 32.8077 47.7532C32.6305 47.5539 32.5001 47.2145 32.5001 46.8499C32.5001 46.4853 32.6305 46.1459 32.8077 45.9466C32.9849 45.7473 33.1772 45.5999 33.7501 45.5999ZM66.2499 45.5999C66.8228 45.5999 67.0151 45.7473 67.1923 45.9466C67.3694 46.1459 67.4999 46.4853 67.4999 46.8499C67.4999 47.2145 67.3694 47.5539 67.1923 47.7532C67.0151 47.9526 66.8228 48.0999 66.2499 48.0999C65.677 48.0999 65.4847 47.9526 65.3075 47.7532C65.1303 47.5539 64.9999 47.2145 64.9999 46.8499C64.9999 46.4853 65.1303 46.1459 65.3075 45.9466C65.4847 45.7473 65.677 45.5999 66.2499 45.5999ZM43.75 65.6413V69.3912H46.25C46.5815 69.3912 46.8995 69.5229 47.1339 69.7574C47.3683 69.9918 47.5 70.3097 47.5 70.6412C47.5 70.9728 47.3683 71.2907 47.1339 71.5251C46.8995 71.7595 46.5815 71.8912 46.25 71.8912H43.75V72.5162C43.75 73.6765 44.211 74.7893 45.0314 75.6098C45.8519 76.4303 46.9647 76.8912 48.125 76.8912H51.875C53.0353 76.8912 54.1481 76.4303 54.9686 75.6098C55.789 74.7893 56.25 73.6765 56.25 72.5162V71.8912H53.75C53.4185 71.8912 53.1005 71.7595 52.8661 71.5251C52.6317 71.2907 52.5 70.9728 52.5 70.6412C52.5 70.3097 52.6317 69.9918 52.8661 69.7574C53.1005 69.5229 53.4185 69.3912 53.75 69.3912H56.25V65.6413H43.75Z" fill="#57BDDB"/>
</svg>
