<svg width="100" height="100" viewBox="0 0 100 100" fill="none" xmlns="http://www.w3.org/2000/svg">
<rect width="100" height="100" rx="50" fill="white"/>
<path d="M25 52.5814V46.6805C25 44.9406 25.7996 43.2973 27.1687 42.2235L35.9768 35.3157C36.5652 34.8543 37.2912 34.6035 38.0388 34.6035H39.4037C40.288 34.6035 41.0048 35.3203 41.0048 36.2046C41.0048 37.0889 40.288 37.8057 39.4037 37.8057H39.068C38.5468 37.8057 38.0442 37.9996 37.658 38.3496L30.8018 44.5637C30.3117 45.0078 30.0322 45.6385 30.0322 46.3V52.5814H25Z" fill="#9FACBA"/>
<path d="M28.0433 51.4891L29.0752 54.7202L28.0433 57.9514H26.0922C25.4889 57.9514 25 57.4624 25 56.8592V52.5813C25 51.978 25.4889 51.4891 26.0922 51.4891H28.0433Z" fill="#9FACBA"/>
<path d="M75 52.5814V46.6805C75 44.9406 74.2004 43.2973 72.8313 42.2235L64.0232 35.3157C63.4348 34.8543 62.7088 34.6035 61.9612 34.6035H60.5963C59.712 34.6035 58.9952 35.3203 58.9952 36.2046C58.9952 37.0889 59.712 37.8057 60.5963 37.8057H60.932C61.4532 37.8057 61.9558 37.9996 62.342 38.3496L69.1983 44.5637C69.6884 45.0078 69.9679 45.6385 69.9679 46.3V52.5814H75Z" fill="#9FACBA"/>
<path d="M71.9566 51.4891L70.8465 54.7202L71.9566 57.9513H73.9078C74.511 57.9513 74.9999 57.4623 74.9999 56.8591V52.5812C74.9999 51.9779 74.511 51.489 73.9078 51.489H71.9566V51.4891Z" fill="#9FACBA"/>
<path d="M28.043 51.489V52.7574L29.075 54.7201L28.043 56.4534V57.9512C28.043 59.9852 29.3262 61.7989 31.2458 62.4715C33.7028 63.3322 37.4422 64.4395 42.0013 65.1437C44.0835 65.4653 46.0725 64.1596 46.6195 62.125L47.3719 59.326C47.551 58.6599 48.1549 58.1968 48.8446 58.1968H51.1546C51.8443 58.1968 52.4483 58.6598 52.6273 59.326L53.4342 62.3274C53.9739 64.3353 55.9201 65.6394 57.9799 65.3567C61.5205 64.8707 65.1932 63.9812 68.8902 62.5361C70.7347 61.8151 71.9563 60.0465 71.9563 58.066V51.4889C71.9563 50.2276 70.9338 49.2051 69.6725 49.2051H30.3268C29.0654 49.2053 28.043 50.2277 28.043 51.489V51.489Z" fill="#57BDDB"/>
<path d="M52.6267 60.699C52.0215 60.6991 51.4676 60.2955 51.3029 59.6831C51.2849 59.6162 51.224 59.5696 51.1548 59.5696H48.8449C48.7756 59.5696 48.7147 59.6163 48.6968 59.6831C48.5001 60.4147 47.7476 60.8481 47.016 60.6516C46.2844 60.4549 45.8507 59.7024 46.0474 58.9708C46.3868 57.7081 47.5371 56.8262 48.8448 56.8262H51.1547C52.4624 56.8262 53.6126 57.7081 53.9521 58.9708C54.1488 59.7024 53.7151 60.4549 52.9835 60.6516C52.8645 60.6837 52.7445 60.699 52.6267 60.699Z" fill="#31A6C9"/>
<path d="M28.043 52.7578H36.1891C36.7401 52.7578 37.1868 53.2045 37.1868 53.7555V55.4562C37.1868 56.0072 36.7401 56.4539 36.1891 56.4539H28.043V52.7578Z" fill="#406C6E"/>
<path d="M65.0379 54.2669H62.3073C61.8906 54.2669 61.5527 53.9291 61.5527 53.5123C61.5527 53.0955 61.8906 52.7578 62.3073 52.7578H65.0379C65.4546 52.7578 65.7925 53.0955 65.7925 53.5123C65.7925 53.9291 65.4546 54.2669 65.0379 54.2669Z" fill="#97E6FC"/>
</svg>
