<svg width="17" height="18" viewBox="0 0 17 18" fill="none" xmlns="http://www.w3.org/2000/svg">
<path d="M8.66508 0.669922C4.06919 0.669922 0.330078 4.40903 0.330078 9.00492C0.330078 13.6008 4.06919 17.3399 8.66508 17.3399C13.261 17.3399 17.0001 13.6008 17.0001 9.00492C17.0001 4.40903 13.261 0.669922 8.66508 0.669922ZM8.66508 1.92017C12.5853 1.92017 15.7498 5.08472 15.7498 9.00492C15.7498 12.9251 12.5853 16.0897 8.66508 16.0897C4.74487 16.0897 1.58033 12.9251 1.58033 9.00492C1.58033 5.08472 4.74487 1.92017 8.66508 1.92017ZM8.65531 4.82847C8.48966 4.83106 8.33181 4.89929 8.21643 5.01818C8.10105 5.13707 8.03758 5.29689 8.03995 5.46255V8.3798H5.1227C5.03987 8.37863 4.95762 8.39393 4.88075 8.42482C4.80388 8.45571 4.73392 8.50157 4.67492 8.55973C4.61593 8.6179 4.56909 8.68721 4.53711 8.76363C4.50514 8.84006 4.48868 8.92208 4.48868 9.00492C4.48868 9.08777 4.50514 9.16979 4.53711 9.24621C4.56909 9.32264 4.61593 9.39195 4.67492 9.45011C4.73392 9.50828 4.80388 9.55413 4.88075 9.58502C4.95762 9.61591 5.03987 9.63122 5.1227 9.63005H8.03995V12.5473C8.03878 12.6301 8.05409 12.7124 8.08498 12.7892C8.11587 12.8661 8.16173 12.9361 8.21989 12.9951C8.27805 13.0541 8.34736 13.1009 8.42379 13.1329C8.50021 13.1649 8.58223 13.1813 8.66508 13.1813C8.74792 13.1813 8.82994 13.1649 8.90637 13.1329C8.98279 13.1009 9.0521 13.0541 9.11027 12.9951C9.16843 12.9361 9.21429 12.8661 9.24518 12.7892C9.27607 12.7124 9.29137 12.6301 9.2902 12.5473V9.63005H12.2075C12.2903 9.63122 12.3725 9.61591 12.4494 9.58502C12.5263 9.55413 12.5962 9.50828 12.6552 9.45011C12.7142 9.39195 12.7611 9.32264 12.793 9.24621C12.825 9.16979 12.8415 9.08777 12.8415 9.00492C12.8415 8.92208 12.825 8.84006 12.793 8.76363C12.7611 8.68721 12.7142 8.6179 12.6552 8.55973C12.5962 8.50157 12.5263 8.45571 12.4494 8.42482C12.3725 8.39393 12.2903 8.37863 12.2075 8.3798H9.2902V5.46255C9.2914 5.37888 9.2758 5.29582 9.2443 5.21829C9.21281 5.14077 9.16608 5.07035 9.10687 5.01122C9.04766 4.95209 8.97719 4.90545 8.89962 4.87405C8.82206 4.84266 8.73898 4.82716 8.65531 4.82847V4.82847Z" fill="#009132"/>
</svg>
