<svg width="16" height="16" viewBox="0 0 16 16" fill="none" xmlns="http://www.w3.org/2000/svg">
<path d="M15.532 2.72761L10.2596 8L15.532 13.2724C16.1564 13.8968 16.1556 14.9083 15.532 15.532C14.9083 16.1556 13.8968 16.1564 13.2724 15.532L8 10.2596L2.72761 15.532C2.10397 16.1556 1.09242 16.1564 0.468019 15.532C-0.156383 14.9076 -0.15563 13.896 0.468019 13.2724L5.74041 8L0.468019 2.72761C-0.156383 2.10321 -0.15563 1.09167 0.468019 0.468019C1.09167 -0.155629 2.10321 -0.156383 2.72761 0.468018L8 5.74041L13.2724 0.468018C13.896 -0.15563 14.9076 -0.156382 15.532 0.468019C16.1564 1.09242 16.1556 2.10396 15.532 2.72761Z" fill="white"/>
</svg>
