<svg width="17" height="16" viewBox="0 0 17 16" fill="none" xmlns="http://www.w3.org/2000/svg">
<path d="M6.59028 9.77778V15.3333C6.59028 15.5831 6.72983 15.812 6.95161 15.9262C7.04806 15.9756 7.1525 16 7.25694 16C7.39339 16 7.52939 15.9582 7.6445 15.876L10.7556 13.6538C10.9307 13.5284 11.0347 13.3262 11.0347 13.1111V9.77778H6.59028ZM15.7014 0H1.92361C1.31117 0 0.8125 0.498667 0.8125 1.11111V2.484C0.8125 3.512 1.27561 4.46622 2.08272 5.10222L6.32494 8.44444H11.2996L15.5418 5.10222C16.3494 4.46622 16.8125 3.51156 16.8125 2.484V1.11111C16.8125 0.498667 16.3138 0 15.7014 0Z" fill="white"/>
</svg>
