<svg width="15" height="15" viewBox="0 0 15 15" fill="none" xmlns="http://www.w3.org/2000/svg">
<path fill="current" d="M1.07426 0.000464998C0.861562 0.000520875 0.653709 0.0640288 0.477278 0.18287C0.300847 0.30171 0.163856 0.470484 0.0838177 0.667614C0.00377942 0.864743 -0.0156688 1.08127 0.0279595 1.28951C0.0715877 1.49776 0.17631 1.68825 0.328738 1.83665L5.98806 7.4977L0.328738 13.1588C0.226122 13.2573 0.144195 13.3754 0.0877567 13.506C0.0313183 13.6366 0.0015026 13.7772 5.53441e-05 13.9195C-0.00139191 14.0618 0.0255586 14.2029 0.0793286 14.3347C0.133098 14.4664 0.212607 14.5861 0.313197 14.6867C0.413788 14.7873 0.533438 14.8669 0.665141 14.9206C0.796844 14.9744 0.937952 15.0014 1.0802 14.9999C1.22245 14.9985 1.36298 14.9687 1.49356 14.9122C1.62414 14.8558 1.74215 14.7738 1.84067 14.6712L7.5 9.0101L13.1593 14.6712C13.2578 14.7738 13.3758 14.8558 13.5064 14.9122C13.637 14.9687 13.7775 14.9985 13.9198 14.9999C14.062 15.0014 14.2032 14.9744 14.3349 14.9206C14.4666 14.8669 14.5862 14.7873 14.6868 14.6867C14.7874 14.5861 14.8669 14.4664 14.9207 14.3347C14.9744 14.2029 15.0014 14.0618 14.9999 13.9195C14.9985 13.7772 14.9687 13.6366 14.9122 13.506C14.8558 13.3754 14.7739 13.2573 14.6713 13.1588L9.01193 7.4977L14.6713 1.83665C14.8258 1.68642 14.9313 1.493 14.974 1.28175C15.0167 1.07049 14.9947 0.851254 14.9107 0.652762C14.8267 0.45427 14.6847 0.285786 14.5034 0.169388C14.3221 0.0529912 14.1098 -0.00588847 13.8944 0.000464998C13.6166 0.00874447 13.353 0.124874 13.1593 0.324252L7.5 5.98531L1.84067 0.324252C1.74103 0.221796 1.62188 0.140356 1.49024 0.0847431C1.3586 0.0291304 1.21716 0.00047333 1.07426 0.000464998Z"/>
</svg>
