<svg width="30" height="30" viewBox="0 0 30 30" fill="none" xmlns="http://www.w3.org/2000/svg">
<path d="M15 0C6.729 0 0 6.729 0 15C0 23.271 6.729 30 15 30C23.271 30 30 23.271 30 15C30 6.729 23.271 0 15 0ZM21.375 16.125H16.125V21.375C16.125 21.9967 15.6217 22.5 15 22.5C14.3782 22.5 13.875 21.9967 13.875 21.375V16.125H8.625C8.0032 16.125 7.5 15.6217 7.5 15C7.5 14.3783 8.0032 13.875 8.625 13.875H13.875V8.625C13.875 8.0033 14.3782 7.5 15 7.5C15.6217 7.5 16.125 8.0033 16.125 8.625V13.875H21.375C21.9967 13.875 22.5 14.3783 22.5 15C22.5 15.6217 21.9967 16.125 21.375 16.125Z" fill="white"/>
</svg>
