<svg width="31" height="30" viewBox="0 0 31 30" fill="none" xmlns="http://www.w3.org/2000/svg">
<path d="M12.576 0C5.92143 0 0.5 5.42143 0.5 12.076C0.5 18.7307 5.92143 24.1521 12.576 24.1521C15.4546 24.1521 18.1008 23.1352 20.1789 21.4454L28.3494 29.6159C28.4645 29.7358 28.6024 29.8315 28.755 29.8975C28.9075 29.9634 29.0717 29.9982 29.2379 29.9999C29.4041 30.0016 29.569 29.9701 29.7229 29.9073C29.8767 29.8445 30.0165 29.7516 30.1341 29.6341C30.2516 29.5165 30.3445 29.3767 30.4073 29.2229C30.4701 29.069 30.5016 28.9041 30.4999 28.7379C30.4982 28.5717 30.4634 28.4075 30.3975 28.255C30.3315 28.1024 30.2358 27.9645 30.1159 27.8494L21.9454 19.6789C23.6352 17.6008 24.6521 14.9546 24.6521 12.076C24.6521 5.42143 19.2307 0 12.576 0ZM12.576 2.49849C17.8804 2.49849 22.1536 6.77171 22.1536 12.076C22.1536 14.66 21.1344 16.9945 19.4811 18.7143C19.3792 18.7892 19.2892 18.8792 19.2143 18.9811C17.4945 20.6344 15.16 21.6536 12.576 21.6536C7.27171 21.6536 2.99849 17.3804 2.99849 12.076C2.99849 6.77171 7.27171 2.49849 12.576 2.49849ZM9.24473 8.32831C8.9134 8.32831 8.59565 8.45993 8.36137 8.69421C8.1271 8.92849 7.99548 9.24624 7.99548 9.57756C7.99548 9.90888 8.1271 10.2266 8.36137 10.4609C8.59565 10.6952 8.9134 10.8268 9.24473 10.8268C9.57605 10.8268 9.8938 10.6952 10.1281 10.4609C10.3624 10.2266 10.494 9.90888 10.494 9.57756C10.494 9.24624 10.3624 8.92849 10.1281 8.69421C9.8938 8.45993 9.57605 8.32831 9.24473 8.32831ZM15.9074 8.32831C15.5761 8.32831 15.2583 8.45993 15.024 8.69421C14.7897 8.92849 14.6581 9.24624 14.6581 9.57756C14.6581 9.90888 14.7897 10.2266 15.024 10.4609C15.2583 10.6952 15.5761 10.8268 15.9074 10.8268C16.2387 10.8268 16.5564 10.6952 16.7907 10.4609C17.025 10.2266 17.1566 9.90888 17.1566 9.57756C17.1566 9.24624 17.025 8.92849 16.7907 8.69421C16.5564 8.45993 16.2387 8.32831 15.9074 8.32831ZM12.576 14.1581C11.3151 14.1581 10.3286 14.3986 9.64488 14.6542C8.9612 14.9099 8.50136 15.2366 8.50136 15.2366C8.36475 15.3323 8.2487 15.4545 8.16006 15.5958C8.07141 15.7371 8.01197 15.8948 7.98523 16.0594C7.95849 16.2241 7.965 16.3924 8.00437 16.5545C8.04375 16.7167 8.11519 16.8692 8.21448 17.0033C8.31377 17.1373 8.4389 17.2502 8.5825 17.3351C8.72609 17.42 8.88523 17.4753 9.05054 17.4977C9.21585 17.5201 9.38398 17.5092 9.545 17.4656C9.70602 17.422 9.85668 17.3466 9.98809 17.2438C9.98809 17.2438 10.09 17.1541 10.52 16.9933C10.95 16.8325 11.6292 16.6566 12.576 16.6566C13.5229 16.6566 14.2021 16.8325 14.6321 16.9933C15.0621 17.1541 15.164 17.2438 15.164 17.2438C15.2954 17.3466 15.4461 17.422 15.6071 17.4656C15.7681 17.5092 15.9362 17.5201 16.1016 17.4977C16.2669 17.4753 16.426 17.42 16.5696 17.3351C16.7132 17.2502 16.8383 17.1373 16.9376 17.0033C17.0369 16.8692 17.1084 16.7167 17.1477 16.5545C17.1871 16.3924 17.1936 16.2241 17.1669 16.0594C17.1401 15.8948 17.0807 15.7371 16.992 15.5958C16.9034 15.4545 16.7873 15.3323 16.6507 15.2366C16.6507 15.2366 16.1909 14.9099 15.5072 14.6542C14.8235 14.3986 13.837 14.1581 12.576 14.1581Z" fill="#9398A8"/>
</svg>
