<svg width="21" height="20" viewBox="0 0 21 20" fill="none" xmlns="http://www.w3.org/2000/svg">
<path d="M6.95626 0C5.27861 0 3.90071 1.3779 3.90071 3.05556V6.38889C3.89915 6.49932 3.91955 6.60895 3.96073 6.71142C4.0019 6.8139 4.06304 6.90717 4.14057 6.98581C4.21811 7.06445 4.31051 7.1269 4.41239 7.16952C4.51427 7.21214 4.6236 7.23409 4.73404 7.23409C4.84448 7.23409 4.95382 7.21214 5.0557 7.16952C5.15758 7.1269 5.24997 7.06445 5.32751 6.98581C5.40505 6.90717 5.46618 6.8139 5.50736 6.71142C5.54854 6.60895 5.56894 6.49932 5.56737 6.38889V3.05556C5.56737 2.27876 6.17947 1.66667 6.95626 1.66667H16.9563C17.7331 1.66667 18.3452 2.27876 18.3452 3.05556V16.9444C18.3452 17.7212 17.7331 18.3333 16.9563 18.3333H6.95626C6.17947 18.3333 5.56737 17.7212 5.56737 16.9444V13.622C5.56894 13.5115 5.54854 13.4019 5.50736 13.2994C5.46618 13.197 5.40505 13.1037 5.32751 13.025C5.24997 12.9464 5.15758 12.884 5.0557 12.8413C4.95382 12.7987 4.84448 12.7768 4.73404 12.7768C4.6236 12.7768 4.51427 12.7987 4.41239 12.8413C4.31051 12.884 4.21811 12.9464 4.14057 13.025C4.06304 13.1037 4.0019 13.197 3.96073 13.2994C3.91955 13.4019 3.89915 13.5115 3.90071 13.622V16.9444C3.90071 18.6221 5.27861 20 6.95626 20H16.9563C18.6339 20 20.0118 18.6221 20.0118 16.9444V3.05556C20.0118 1.3779 18.6339 0 16.9563 0H6.95626ZM10.2809 5.8355C10.1151 5.83554 9.95301 5.88506 9.81546 5.97773C9.67792 6.07039 9.57115 6.20198 9.50881 6.35567C9.44648 6.50935 9.43141 6.67814 9.46554 6.84043C9.49967 7.00273 9.58145 7.15115 9.7004 7.26671L11.6101 9.17643L0.846237 9.16667C0.735817 9.16497 0.62616 9.18523 0.523638 9.22628C0.421117 9.26733 0.327776 9.32834 0.249039 9.40577C0.170302 9.48321 0.10774 9.57552 0.064987 9.67734C0.0222344 9.77916 0.000144498 9.88847 7.06547e-07 9.9989C-0.000143085 10.1093 0.0216621 10.2187 0.0641493 10.3206C0.106637 10.4226 0.168958 10.515 0.247494 10.5927C0.326029 10.6703 0.41921 10.7316 0.521625 10.7729C0.624039 10.8142 0.733643 10.8347 0.844067 10.8333L11.6123 10.8431L9.7004 12.755C9.62043 12.8318 9.55658 12.9238 9.51259 13.0255C9.46861 13.1273 9.44537 13.2368 9.44424 13.3477C9.44311 13.4586 9.46412 13.5685 9.50603 13.6712C9.54794 13.7738 9.6099 13.8671 9.6883 13.9455C9.7667 14.0239 9.85995 14.0858 9.9626 14.1278C10.0652 14.1697 10.1752 14.1907 10.2861 14.1895C10.397 14.1884 10.5065 14.1652 10.6083 14.1212C10.71 14.0772 10.802 14.0134 10.8788 13.9334L14.2121 10.6C14.3683 10.4438 14.4561 10.2318 14.4561 10.0109C14.4561 9.78987 14.3683 9.57794 14.2121 9.42166L10.8788 6.08833C10.8011 6.00833 10.7082 5.94474 10.6055 5.90131C10.5028 5.85789 10.3924 5.83551 10.2809 5.8355Z" fill="white"/>
</svg>
