<svg width="40" height="37" viewBox="0 0 40 37" fill="none" xmlns="http://www.w3.org/2000/svg">
    <path d="M20 0.451172C18.4087 0.451172 16.8826 1.08331 15.7574 2.20853C14.6321 3.33375 14 4.85987 14 6.45117C14 8.04247 14.6321 9.56859 15.7574 10.6938C16.8826 11.819 18.4087 12.4512 20 12.4512C21.5913 12.4512 23.1174 11.819 24.2426 10.6938C25.3679 9.56859 26 8.04247 26 6.45117C26 4.85987 25.3679 3.33375 24.2426 2.20853C23.1174 1.08331 21.5913 0.451172 20 0.451172ZM7 2.45117C5.67392 2.45117 4.40215 2.97796 3.46447 3.91564C2.52678 4.85332 2 6.12509 2 7.45117C2 8.77725 2.52678 10.049 3.46447 10.9867C4.40215 11.9244 5.67392 12.4512 7 12.4512C8.32608 12.4512 9.59785 11.9244 10.5355 10.9867C11.4732 10.049 12 8.77725 12 7.45117C12 6.12509 11.4732 4.85332 10.5355 3.91564C9.59785 2.97796 8.32608 2.45117 7 2.45117ZM33 2.45117C31.6739 2.45117 30.4021 2.97796 29.4645 3.91564C28.5268 4.85332 28 6.12509 28 7.45117C28 8.77725 28.5268 10.049 29.4645 10.9867C30.4021 11.9244 31.6739 12.4512 33 12.4512C34.3261 12.4512 35.5979 11.9244 36.5355 10.9867C37.4732 10.049 38 8.77725 38 7.45117C38 6.12509 37.4732 4.85332 36.5355 3.91564C35.5979 2.97796 34.3261 2.45117 33 2.45117ZM20 36.4512C15.038 36.4512 11 32.4132 11 27.4512V17.9512C11 16.0212 12.57 14.4512 14.5 14.4512H25.5C27.43 14.4512 29 16.0212 29 17.9512V27.4512C29 32.4132 24.962 36.4512 20 36.4512ZM9 27.4512V17.9512C9 16.6232 9.474 15.4032 10.261 14.4512H3.5C1.57 14.4512 0 16.0212 0 17.9512V24.4512C0 28.8612 3.59 32.4512 8 32.4512C8.71 32.4512 9.4 32.3612 10.06 32.1812C10.06 32.1812 10.071 32.1762 10.08 32.1732C9.395 30.7402 9 29.1422 9 27.4512ZM31 27.4512V17.9512C31 16.6232 30.526 15.4032 29.739 14.4512H36.5C38.43 14.4512 40 16.0212 40 17.9512V24.4512C40 28.8612 36.41 32.4512 32 32.4512C31.29 32.4512 30.6 32.3612 29.94 32.1812C29.94 32.1812 29.929 32.1762 29.92 32.1732C30.605 30.7402 31 29.1422 31 27.4512Z"
          fill="white"/>
</svg>
