<svg width="38" height="41" viewBox="0 0 38 41" fill="none" xmlns="http://www.w3.org/2000/svg">
    <path d="M19 0.451172C13.3181 0.451172 8.6414 4.9628 8.17997 10.6837H7.69048C3.44986 10.6837 0 14.2307 0 18.5907C0 22.9507 3.44986 26.4977 7.69048 26.4977H18.7826C17.7883 25.2233 17.1905 23.6075 17.1905 21.8465C17.1905 17.7368 20.4313 14.4047 24.4286 14.4047C28.4258 14.4047 31.6667 17.7368 31.6667 21.8465C31.6667 23.6075 31.0688 25.2233 30.0745 26.4977H30.3095C34.5501 26.4977 38 22.9507 38 18.5907C38 14.2307 34.5501 10.6837 30.3095 10.6837H29.82C29.3586 4.9628 24.6819 0.451172 19 0.451172ZM24.4286 16.2651C22.9888 16.2651 21.608 16.8532 20.59 17.8999C19.5719 18.9466 19 20.3662 19 21.8465C19 23.3268 19.5719 24.7465 20.59 25.7932C21.608 26.8399 22.9888 27.4279 24.4286 27.4279C25.8683 27.4279 27.2491 26.8399 28.2672 25.7932C29.2852 24.7465 29.8571 23.3268 29.8571 21.8465C29.8571 20.3662 29.2852 18.9466 28.2672 17.8999C27.2491 16.8532 25.8683 16.2651 24.4286 16.2651ZM19.4524 29.2884C17.7062 29.2884 16.2857 30.7488 16.2857 32.5442V34.8698C16.2857 37.9991 19.8622 40.4512 24.4286 40.4512C28.9949 40.4512 32.5714 37.9991 32.5714 34.8698V32.5442C32.5714 30.7488 31.151 29.2884 29.4048 29.2884H19.4524Z"
          fill="white"/>
</svg>
