<svg width="40" height="41" viewBox="0 0 40 41" fill="none" xmlns="http://www.w3.org/2000/svg">
    <path d="M0.847656 26.623H9.59766V29.2793H0.847656V26.623Z" fill="white"/>
    <path d="M11.9414 26.623H20.6914V29.2793H11.9414V26.623Z" fill="white"/>
    <path d="M0.847656 11.623H9.59766V24.2793H0.847656V11.623Z" fill="white"/>
    <path d="M11.9414 11.623V24.2793H20.6914V21.1577L17.6607 11.623H11.9414Z" fill="white"/>
    <path d="M0.847656 36.7793C0.847656 38.8072 2.49164 40.4512 4.51953 40.4512C4.51953 40.4512 8.41875 40.4489 8.4925 40.4445C9.11274 40.4068 9.59766 39.8952 9.59766 39.2738V31.623H0.847656V36.7793Z"
          fill="white"/>
    <path d="M11.9414 39.2738C11.9414 39.8952 12.4263 40.4068 13.0466 40.4445C13.1203 40.4489 17.0195 40.4512 17.0195 40.4512C19.0474 40.4512 20.6914 38.8072 20.6914 36.7793V31.623H11.9414V39.2738Z"
          fill="white"/>
    <path d="M8.4925 0.457891C8.41875 0.453438 4.51953 0.451172 4.51953 0.451172C2.49164 0.451172 0.847656 2.09516 0.847656 4.12305V9.2793H9.59766V1.62852C9.59766 1.00719 9.11274 0.495547 8.4925 0.457891Z"
          fill="white"/>
    <path d="M16.2801 7.27969C15.7934 5.74844 15.932 4.11914 16.6707 2.69211C17.0807 1.90008 17.6487 1.22359 18.3344 0.694609C17.926 0.537891 17.483 0.451172 17.0195 0.451172C17.0195 0.451172 13.1203 0.453438 13.0466 0.457891C12.4263 0.495547 11.9414 1.00719 11.9414 1.62852V9.2793H16.9157L16.2801 7.27969Z"
          fill="white"/>
    <path d="M35.8883 24.6085L25.3223 27.9896L26.139 30.5588L36.7114 27.198L35.8883 24.6085Z" fill="white"/>
    <path d="M31.3518 10.3366L20.7794 13.6973L24.6123 25.7559L35.1784 22.3748L31.3518 10.3366Z" fill="white"/>
    <path d="M38.9788 34.3309L37.4214 29.4316L26.8489 32.7924L28.4062 37.6916C28.7033 38.6263 29.3466 39.3893 30.2177 39.8402C30.747 40.1142 31.322 40.2529 31.9014 40.2529C32.2754 40.2529 32.6513 40.1951 33.0179 40.0786L36.5917 38.9426C38.5212 38.3292 39.592 36.2605 38.9788 34.3309Z"
          fill="white"/>
    <path d="M20.0694 11.4637L30.6418 8.10297L29.0863 3.20906C28.7891 2.27437 28.1458 1.51125 27.2748 1.06039C26.4038 0.609531 25.4092 0.524922 24.4745 0.821953L20.9007 1.95797C19.966 2.25508 19.203 2.89836 18.7521 3.76945C18.3013 4.64047 18.2166 5.63492 18.5137 6.56969L20.0694 11.4637Z"
          fill="white"/>
</svg>
