<svg width="38" height="41" viewBox="0 0 38 41" fill="none" xmlns="http://www.w3.org/2000/svg">
    <path d="M35.666 18.5878C34.7459 18.5878 33.9995 17.8413 33.9995 16.9212C33.9995 12.2462 32.1794 7.85291 28.8743 4.54602C28.2228 3.89447 28.2228 2.84131 28.8743 2.18945C29.5259 1.5379 30.5793 1.5379 31.2309 2.18945C35.1661 6.12439 37.3326 11.3563 37.3326 16.9212C37.3326 17.8413 36.5861 18.5878 35.666 18.5878Z"
          fill="white"/>
    <path d="M2.33258 18.5878C1.41278 18.5878 0.666016 17.8413 0.666016 16.9212C0.666016 11.3563 2.83276 6.12439 6.7677 2.18945C7.41925 1.5379 8.47272 1.5379 9.12427 2.18945C9.77612 2.84131 9.77612 3.89447 9.12427 4.54602C5.81921 7.85107 3.99945 12.2462 3.99945 16.9212C3.99945 17.8413 3.25269 18.5878 2.33258 18.5878Z"
          fill="white"/>
    <path d="M34.6312 28.6396C32.111 26.5095 30.666 23.3961 30.666 20.0978V15.4512C30.666 9.5863 26.3093 4.73126 20.666 3.91797V2.11774C20.666 1.19611 19.9193 0.451172 18.9995 0.451172C18.0793 0.451172 17.3326 1.19611 17.3326 2.11774V3.91797C11.6877 4.73126 7.33258 9.5863 7.33258 15.4512V20.0978C7.33258 23.3961 5.88757 26.5095 3.35278 28.6528C2.70428 29.2079 2.33258 30.0145 2.33258 30.8677C2.33258 32.4763 3.64087 33.7846 5.24945 33.7846H32.7495C34.3577 33.7846 35.666 32.4763 35.666 30.8677C35.666 30.0145 35.2943 29.2079 34.6312 28.6396Z"
          fill="white"/>
    <path d="M18.9995 40.4512C22.0176 40.4512 24.5427 38.2994 25.1228 35.4512H12.8761C13.4559 38.2994 15.981 40.4512 18.9995 40.4512Z"
          fill="white"/>
</svg>
