<svg width="22" height="16" viewBox="0 0 22 16" fill="none" xmlns="http://www.w3.org/2000/svg">
<path d="M2.36026 0.00174729C2.75437 -0.0156767 3.15642 0.0964914 3.49327 0.370706L9.99874 5.6687V1.64074C9.99874 0.619169 10.9823 -0.0780768 11.929 0.0073083C12.2445 0.0357703 12.5565 0.151334 12.826 0.370705L20.6343 6.72922L20.6352 6.73015C21.4385 7.38521 21.4381 8.61554 20.6343 9.27021L12.826 15.6296C11.7481 16.5071 9.99874 15.7217 9.99874 14.3596V10.3317L3.49327 15.6296C2.41532 16.5071 0.666017 15.7217 0.666017 14.3596L0.666016 1.64074C0.666016 0.704309 1.49321 0.0400804 2.36026 0.00174729Z" fill="#2C2C2C"/>
</svg>
